<!-- <svg xmlns="http://www.w3.org/2000/svg" width="9" height="16">
  <path fill="#574751" fill-rule="evenodd" d="M8.7 14.3c.4.4.4 1 0 1.4-.4.4-1 .4-1.4 0l-7-7c-.4-.4-.4-1 0-1.4l7-7c.4-.4 1-.4 1.4 0 .4.4.4 1 0 1.4L2.4 8l6.3 6.3z"/>
</svg> -->
<svg xmlns="http://www.w3.org/2000/svg" width="17" height="18" viewBox="0 0 17 18">
    <g  fill-rule="evenodd">
        <path d="M8.7 14.3c.4.4.4 1 0 1.4-.4.4-1 .4-1.4 0l-7-7c-.4-.4-.4-1 0-1.4l7-7c.4-.4 1-.4 1.4 0 .4.4.4 1 0 1.4L2.4 8l6.3 6.3z"/>
        <!-- <path d="M0 2.768L2.121.646 16.264 14.79l-2.122 2.12z"/> -->
    </g>
</svg>
