<svg xmlns="http://www.w3.org/2000/svg" width="34" height="34" viewBox="0 0 34 34">
    <g fill="none" fill-rule="evenodd" stroke="#34384B" transform="translate(0 1)">
        <path stroke-width="2" d="M1 17v13a2 2 0 0 0 2 2h28a2 2 0 0 0 2-2V17H1z"/>
        <rect width="3.25" height="8.25" x="5.875" y="8.875" stroke-width="1.75" rx="1"/>
        <rect width="3.25" height="8.25" x="15.875" y="8.875" stroke-width="1.75" rx="1"/>
        <rect width="3.25" height="8.25" x="25.875" y="8.875" stroke-width="1.75" rx="1"/>
        <path stroke-width=".8" d="M7.85 5c.69 0 1.315-.28 1.768-.732C10.07 3.815 8.54 0 7.85 0S5.63 3.815 6.082 4.268A2.492 2.492 0 0 0 7.85 5zM17.85 5c.69 0 1.315-.28 1.768-.732C20.07 3.815 18.54 0 17.85 0s-2.22 3.815-1.768 4.268A2.492 2.492 0 0 0 17.85 5zM27.85 5c.69 0 1.315-.28 1.768-.732C30.07 3.815 28.54 0 27.85 0s-2.22 3.815-1.768 4.268A2.492 2.492 0 0 0 27.85 5z"/>
        <path d="M1.002 20c-.063 3.333 1.676 5 5.215 5 3.54 0 5.278-1.667 5.215-5M11.81 20c-.062 3.333 1.676 5 5.216 5 3.539 0 5.277-1.667 5.215-5M22.619 20c-.063 3.333 1.676 5 5.215 5 3.54 0 5.278-1.667 5.215-5"/>
    </g>
</svg>
