<svg xmlns="http://www.w3.org/2000/svg" width="32" height="25" viewBox="0 0 32 25">
    <path d="M28.41 2.838c1.004 0 1.887.393 2.525 1.057A3.403 3.403 0 0 1 32 6.4v15.036c0 .966-.426 1.872-1.065 2.506A3.453 3.453 0 0 1 28.411 25H3.589a3.63 3.63 0 0 1-2.524-1.057A3.403 3.403 0 0 1 0 21.437V6.401c0-.966.426-1.872 1.065-2.506a3.453 3.453 0 0 1 2.524-1.057h5.02v-.06c0-.755.304-1.45.82-1.963A2.812 2.812 0 0 1 11.438 0h9.126c.76 0 1.46.302 1.977.815.517.483.821 1.208.821 1.963v.06h5.05zm1.978 18.6h.03V6.4c0-.544-.213-1.027-.578-1.389a1.96 1.96 0 0 0-1.399-.574h-5.87a.815.815 0 0 1-.822-.815v-.875c0-.333-.122-.634-.335-.846a1.2 1.2 0 0 0-.851-.332h-9.095a1.2 1.2 0 0 0-.852.332 1.181 1.181 0 0 0-.335.846v.875a.815.815 0 0 1-.82.815H3.588a1.96 1.96 0 0 0-1.399.574 1.931 1.931 0 0 0-.578 1.389v15.036c0 .544.213 1.027.578 1.39a1.96 1.96 0 0 0 1.4.573h24.82a1.96 1.96 0 0 0 1.4-.574c.365-.362.578-.845.578-1.389zM16 6.491c2.068 0 3.954.845 5.293 2.173a7.413 7.413 0 0 1 2.19 5.254 7.34 7.34 0 0 1-2.19 5.254A7.524 7.524 0 0 1 16 21.347a7.45 7.45 0 0 1-5.293-2.174 7.413 7.413 0 0 1-2.19-5.254 7.34 7.34 0 0 1 2.19-5.254A7.524 7.524 0 0 1 16 6.492zm4.137 11.564c1.065-1.057 1.734-2.506 1.703-4.107 0-1.6-.638-3.05-1.703-4.106A5.967 5.967 0 0 0 16 8.153a5.837 5.837 0 0 0-4.137 1.69c-1.034 1.057-1.703 2.506-1.703 4.106s.638 3.05 1.703 4.107A5.967 5.967 0 0 0 16 19.746a5.967 5.967 0 0 0 4.137-1.69zm6.677-11.564c.823 0 1.49.662 1.49 1.479 0 .817-.667 1.48-1.49 1.48-.824 0-1.49-.663-1.49-1.48s.666-1.48 1.49-1.48z"/>
</svg>
