<?xml version="1.0" encoding="UTF-8"?>
<svg width="32px" height="29px" viewBox="0 0 32 29" version="1.1" xmlns="http://www.w3.org/2000/svg" xmlns:xlink="http://www.w3.org/1999/xlink">
    <!-- Generator: sketchtool 51.2 (57519) - http://www.bohemiancoding.com/sketch -->
    <title>BAB90F66-1DE4-4A10-934D-84D6BCA40768</title>
    <desc>Created with sketchtool.</desc>
    <defs></defs>
    <g id="Page-1" stroke="none" stroke-width="1" fill="none" fill-rule="evenodd">
        <g id="Document-Upload" transform="translate(-390.000000, -233.000000)" stroke="#34384B" stroke-width="4">
            <g id="Single-Selection" transform="translate(306.000000, 110.000000)">
                <g id="i_camera" transform="translate(84.000000, 123.000000)">
                    <path d="M2,27 L30,27 L30,6 L2,6 L2,27 Z M16,20 C13.7927375,20 12,18.2075318 12,16.0001706 C12,13.7925737 13.7926319,12 16,12 C18.2076442,12 20,13.7925087 20,16.0001706 C20,18.2075969 18.2075386,20 16,20 Z" id="Combined-Shape"></path>
                    <path d="M5,1 L5,0 L4,1 L3,1 L3.5,1.5 L3,2 L4,2 L5,3 L5,2 L8,2 L8,3 L9,2 L10,2 L9.5,1.5 L10,1 L9,1 L8,0 L8,1 L5,1 Z" id="Fill-2"></path>
                    <path d="M26,10 L25.5,9.5 L24.5,10.5 L25,11 L25,12 L25.5,11.5 L26,12 L26,10 L25,10 L25,11 L27,11 L26.5,10.5 L27,10 L26,10 Z M26,10 L26,9 L25.5,9.5 L25,9 L25,10 L24,10 L24.5,10.5 L24,11 L25,11 L25.5,11.5 L26.5,10.5 L26,10 Z" id="Fill-5"></path>
                </g>
            </g>
        </g>
    </g>
</svg>