<svg xmlns="http://www.w3.org/2000/svg" width="34" height="34" viewBox="0 0 34 34">
    <g fill="none" fill-rule="evenodd" stroke="#34384B" stroke-width="3">
        <path d="M17 2.353A14.96 14.96 0 0 0 6.394 6.74c-5.859 5.85-5.859 15.334 0 21.183A14.96 14.96 0 0 0 17 32.31a14.96 14.96 0 0 0 10.606-4.388c5.859-5.85 5.859-15.333 0-21.183A14.96 14.96 0 0 0 17 2.353M17.402 10.99V8.35M17.402 25.954v-2.64"/>
        <path d="M20.395 14.51c0-1.844-1.643-3.3-3.536-2.966-1.202.212-2.19 1.208-2.402 2.42 0 0-.547 2.67 2.945 3.188 3.493.517 2.945 3.188 2.945 3.188-.211 1.212-1.199 2.208-2.403 2.42a3.002 3.002 0 0 1-3.534-2.966"/>
    </g>
</svg>
