<svg xmlns="http://www.w3.org/2000/svg" width="35" height="35" viewBox="0 0 35 35">
    <g fill="none" fill-rule="nonzero">
        <path stroke="#424559" stroke-width="3" d="M17.5 33.5c8.837 0 16-7.163 16-16s-7.163-16-16-16-16 7.163-16 16 7.163 16 16 16z"/>
        <path fill="#424559" d="M16.678 8.414V7h2.759v1.467C21.793 8.938 23 10.51 23 13.129v.576h-3.16v-.838c0-1.31-.633-1.938-1.725-1.938s-1.724.471-1.724 1.938c0 3.981 6.437 4.19 6.437 9.743 0 2.62-1.207 4.348-3.564 4.662v1.467h-2.7v-1.467C14.206 26.801 13 25.125 13 22.61V21.3h3.276v1.415c0 1.31.632 1.938 1.724 1.938s1.724-.471 1.724-1.938c0-3.981-6.437-4.19-6.437-9.743 0-2.515 1.15-4.086 3.391-4.558z"/>
    </g>
</svg>
