<svg xmlns="http://www.w3.org/2000/svg" width="51" height="45" viewBox="0 0 51 45">
    <path d="M3.4 16.56l21.038 16.804a1.71 1.71 0 0 0 2.125 0L47.6 16.56v25.065H3.4V16.56zm12.29-.246a1.694 1.694 0 0 0-1.612 1.775c.049.931.85 1.648 1.789 1.6h19.266a1.693 1.693 0 0 0 1.724-1.664 1.693 1.693 0 0 0-1.724-1.711H15.867a1.545 1.545 0 0 0-.177 0zm26.81-1.688h2.107L42.5 16.314v-1.688zm-36.107 0H8.5v1.688l-2.107-1.688zm9.297-3.937a1.695 1.695 0 0 0-1.612 1.775c.049.932.85 1.648 1.789 1.6h19.266a1.694 1.694 0 0 0 1.724-1.664 1.694 1.694 0 0 0-1.675-1.711H15.867a1.854 1.854 0 0 0-.177 0zm0-5.625a1.694 1.694 0 0 0-1.612 1.776c.049.931.85 1.648 1.789 1.599h19.266a1.693 1.693 0 0 0 1.724-1.664 1.693 1.693 0 0 0-1.724-1.71H15.867a1.545 1.545 0 0 0-.177 0zM11.9 3.377h27.2V19.02L25.5 29.901l-13.6-10.88V3.376zM10.023.002C9.193.088 8.495.862 8.5 1.69v9.561H1.7a2.331 2.331 0 0 0-.177 0c-.83.087-1.528.86-1.523 1.688v30.374C0 44.196.81 45 1.7 45h47.6c.89 0 1.7-.804 1.7-1.687V12.939c0-.884-.81-1.688-1.7-1.688h-6.8V1.69c0-.884-.81-1.688-1.7-1.688H10.2a1.853 1.853 0 0 0-.177 0z"/>
</svg>
