<svg xmlns="http://www.w3.org/2000/svg" width="18" height="20" viewBox="0 0 18 20">
    <g fill-rule="evenodd" stroke="#424559">
        <path d="M4.81 10.694c.966.358 2.509.577 4.17.577 1.714 0 3.308-.235 4.268-.614-.192-.586-.333-1.513-.249-2.972.134-1.18.137-4.333-1.41-5.11a.597.597 0 0 1-.107-.069c.01.008-.047-.027-.143-.027-.165 0-.375.109-.589.306a.6.6 0 0 1-.87-.067 1.867 1.867 0 0 0-1.39-.593c-.356 0-.74.092-1.138.273a3.592 3.592 0 0 0-2.048 2.61 9.063 9.063 0 0 0-.116 2.115c.046.637.124 2.473-.378 3.571m4.17 1.702c-2.269 0-4.317-.386-5.345-1.008a.558.558 0 0 1-.274-.461.557.557 0 0 1 .247-.475c.325-.22.52-1.774.413-3.262-.046-.869 0-1.666.133-2.381a4.723 4.723 0 0 1 2.7-3.429C7.409 1.128 7.96 1 8.49 1c.873 0 1.51.344 1.894.636.31-.187.63-.282.954-.282.414 0 .705.158.835.246 2.52 1.321 2.012 5.98 1.99 6.178-.111 1.948.231 2.684.339 2.863a.551.551 0 0 1-.2.761c-1.033.613-3.073.994-5.323.994"/>
        <path d="M2.242 17.775H15.7a4.095 4.095 0 0 0-.206-.65c-.536-1.316-1.656-2.407-3.071-2.991-1.425-.589-2.033-1.282-2.292-1.738H7.811c-.26.456-.868 1.15-2.292 1.738-1.416.584-2.535 1.675-3.07 2.992-.092.222-.16.44-.207.65M16.358 18.9H1.584a.594.594 0 0 1-.418-.169.553.553 0 0 1-.166-.406 4.582 4.582 0 0 1 .36-1.61c.65-1.595 1.997-2.912 3.697-3.615 1.59-.656 1.786-1.365 1.788-1.373a.611.611 0 0 1 .574-.456h3.105c.29 0 .535.205.578.48.002 0 .213.7 1.783 1.349 1.7.702 3.049 2.02 3.698 3.616a4.58 4.58 0 0 1 .36 1.609.552.552 0 0 1-.166.406.596.596 0 0 1-.419.17"/>
    </g>
</svg>
