<?xml version="1.0" encoding="UTF-8"?>
<svg width="43px" height="56px" viewBox="0 0 43 56" version="1.1" xmlns="http://www.w3.org/2000/svg" xmlns:xlink="http://www.w3.org/1999/xlink">
    <!-- Generator: sketchtool 51.2 (57519) - http://www.bohemiancoding.com/sketch -->
    <title>518228AB-B647-4AFA-B1D4-3A6E365FC3DA</title>
    <desc>Created with sketchtool.</desc>
    <defs></defs>
    <g id="Page-1" stroke="none" stroke-width="1" fill="none" fill-rule="evenodd">
        <g id="Application-Submission---Payment-Failed" transform="translate(-306.000000, -104.000000)" fill="#282B3E">
            <g id="Group-2" transform="translate(306.000000, 104.000000)">
                <path d="M11.5051,28.173 C7.9321,25.26 5.6431,20.829 5.6431,15.87 C5.6431,7.119 12.7621,0 21.5121,0 C30.2631,0 37.3821,7.119 37.3821,15.87 C37.3821,20.835 35.0871,25.271 31.5051,28.183 L31.5051,20.141 C32.0681,18.829 32.3821,17.386 32.3821,15.87 C32.3821,9.876 27.5061,5 21.5121,5 C15.5191,5 10.6431,9.876 10.6431,15.87 C10.6431,17.375 10.9501,18.809 11.5051,20.112 L11.5051,28.173 Z M31.505125,31.0948 L42.430125,38.8398 L42.430125,55.5278 L37.430125,55.5278 L37.430125,41.4228 L28.617125,35.1768 L28.617125,39.8798 L23.617125,39.8798 L23.617125,32.3238 L23.617125,31.6538 L23.617125,26.6018 L23.617125,19.8368 L23.617125,16.0648 C23.617125,14.8998 22.670125,13.9518 21.505125,13.9518 C20.341125,13.9518 19.393125,14.8998 19.393125,16.0648 L19.393125,19.8368 L19.393125,26.5998 L19.393125,31.6518 L19.393125,32.3238 L19.393125,51.5348 L8.60312502,40.7458 C7.77812502,39.9228 6.44012502,39.9228 5.61412502,40.7458 C4.79212502,41.5698 4.79212502,42.9088 5.61512502,43.7328 L14.368125,52.4868 L10.832125,56.0218 L2.07912502,47.2678 C-0.692874983,44.4948 -0.692874983,39.9838 2.07812502,37.2098 C4.85312502,34.4368 9.36512502,34.4378 12.138125,37.2088 L12.138125,37.2098 L14.393125,39.4648 L14.393125,32.3238 L14.393125,30.1038 L14.393125,24.1348 L14.393125,19.8368 L14.393125,16.0648 C14.393125,12.1428 17.583125,8.9518 21.505125,8.9518 C25.427125,8.9518 28.617125,12.1428 28.617125,16.0648 L28.617125,19.8368 L28.617125,24.1478 L28.617125,29.0478 L29.468125,29.6508 L31.505125,31.0948 Z" id="Combined-Shape"></path>
            </g>
        </g>
    </g>
</svg>