<svg xmlns="http://www.w3.org/2000/svg" width="106" height="106" viewBox="0 0 106 106">
    <g fill="none" fill-rule="evenodd" transform="translate(4 4)">
        <path stroke="#34384B" stroke-width="8" d="M48.893 0C36.38 0 23.867 4.764 14.323 14.298c-19.097 19.07-19.097 49.982 0 69.047 9.544 9.534 22.057 14.302 34.57 14.302 12.513 0 25.026-4.768 34.57-14.302 19.097-19.065 19.097-49.978 0-69.047C73.92 4.764 61.407 0 48.894 0"/>
        <path fill="#424559" d="M49.009 74a5.992 5.992 0 0 0-4.249 1.757 5.993 5.993 0 0 0 0 8.485A5.993 5.993 0 0 0 49.01 86a5.993 5.993 0 0 0 4.248-1.758 5.993 5.993 0 0 0 0-8.485A5.992 5.992 0 0 0 49.009 74"/>
        <rect width="10" height="50" x="44" y="14" fill="#34384B" rx="5"/>
    </g>
</svg>
