<svg xmlns="http://www.w3.org/2000/svg" width="37" height="38" viewBox="0 0 37 38">
    <g fill="none" fill-rule="evenodd" transform="translate(0 1)">
        <rect width="31.51" height="19.466" x="2.365" y="15.66" stroke="#34384B" stroke-width="2.25" rx="1"/>
        <rect width="34.25" height="7.402" x="1.125" y="8.422" stroke="#34384B" stroke-width="2.25" rx="1"/>
        <path fill="#34384B" d="M13.16 7.297h2.48v28.955h-2.48zM20.6 7.297h2.48v28.955H20.6z"/>
        <path stroke="#34384B" stroke-width="1.75" d="M18.794 7.728c-5.907.423-9.4.141-10.478-.845-1.617-1.479-1.617-3.877 0-5.356 1.618-1.478 4.241-1.478 5.859 0 1.078.986 2.618 3.053 4.619 6.201z"/>
        <path stroke="#34384B" stroke-width="1.75" d="M17.89 7.728c2-3.148 3.54-5.215 4.619-6.2 1.617-1.48 4.24-1.48 5.858 0 1.618 1.478 1.618 3.876 0 5.355-1.078.986-4.57 1.268-10.477.845z"/>
    </g>
</svg>
