<svg xmlns="http://www.w3.org/2000/svg" width="20" height="20" viewBox="0 0 20 20">
    <g fill="none" fill-rule="evenodd">
        <circle cx="10" cy="10" r="9.5" stroke="#34384B" opacity=".2"/>
        <path fill="#424559" d="M9.058 12.205v-.282c0-.461.029-.692.145-.923.116-.23.406-.538.811-.949l.435-.436c.348-.359.725-.692.725-1.307 0-.616-.493-1.052-1.188-1.052-.696 0-1.305.308-1.305 1.18 0 .41.145.718.145.718l-1.681-.257S7 8.59 7 8.18C7 7.051 7.957 6 9.986 6 12.014 6 13 7.077 13 8.23c0 1.116-.928 1.796-1.043 1.898l-.899.846c-.188.18-.377.41-.435.513-.058.103-.087.282-.087.436v.282H9.058zM8.884 15v-1.872h1.826V15H8.884z"/>
    </g>
</svg>
