<svg xmlns="http://www.w3.org/2000/svg" width="35" height="23" viewBox="0 0 35 23">
    <g fill-rule="evenodd">
        <path fill-rule="nonzero" d="M9.5 13a4.5 4.5 0 1 1 0-9 4.5 4.5 0 0 1 0 9zm0-2.842a1.658 1.658 0 1 0 0-3.316 1.658 1.658 0 0 0 0 3.316zM19.5 23a4.5 4.5 0 1 1 0-9 4.5 4.5 0 0 1 0 9zm0-2.842a1.658 1.658 0 1 0 0-3.316 1.658 1.658 0 0 0 0 3.316z"/>
        <path fill-rule="nonzero" d="M1.531 15L0 12.717 5.469 9 7 11.283zM11 10.847L12.97 9 18 14.153 16.03 16zM22.392 16L20 14.189 31.608 1 34 2.811z"/>
        <path d="M32 0h3v9h-3z"/>
        <path d="M35 3V0h-9v3z"/>
    </g>
</svg>
