<svg xmlns="http://www.w3.org/2000/svg" width="15" height="19" viewBox="0 0 15 19">
    <g fill-rule="evenodd" stroke="#424559">
        <path d="M7.497 1.636c-1.66 0-3.01 1.329-3.01 2.961 0 1.734 1.458 4.61 3.01 4.61 1.551 0 3.009-2.876 3.009-4.61 0-1.632-1.35-2.96-3.01-2.96m0 8.661c-2.349 0-4.117-3.458-4.117-5.7 0-2.235 1.847-4.053 4.118-4.053 2.27 0 4.117 1.818 4.117 4.052 0 2.243-1.768 5.701-4.117 5.701M2.109 16.813h10.775V14.86c0-1.252-1.195-2.27-2.664-2.27H4.773c-1.47 0-2.664 1.018-2.664 2.27v1.952zm11.33 1.09H1.553A.55.55 0 0 1 1 17.359v-2.497c0-1.853 1.692-3.36 3.773-3.36h5.447c2.08 0 3.773 1.507 3.773 3.36v2.497a.55.55 0 0 1-.555.546z"/>
    </g>
</svg>
