<?xml version="1.0" encoding="UTF-8"?>
<svg width="238px" height="45px" viewBox="0 0 238 45" version="1.1" xmlns="http://www.w3.org/2000/svg" xmlns:xlink="http://www.w3.org/1999/xlink">
    <!-- Generator: Sketch 51.3 (57544) - http://www.bohemiancoding.com/sketch -->
    <title>LOGO</title>
    <desc>Created with Sketch.</desc>
    <defs></defs>
    <g id="Page-1" stroke="none" stroke-width="1" fill="none" fill-rule="evenodd">
        <g id="Cover" transform="translate(-31.000000, -76.000000)">
            <g id="Content">
                <g id="LOGO" transform="translate(31.000000, 76.000000)">
                    <polygon id="Fill-1" fill="#00A758" points="40.6267529 0 32.4453782 8.17413669 32.4453782 36.7809712 32.4453782 44.9543525 40.6267529 36.7809712 40.6267529 8.17413669"></polygon>
                    <polygon id="Fill-2" fill="#00A758" points="24.1036437 0 15.9222689 8.17413669 15.9222689 36.7809712 15.9222689 44.9543525 24.1036437 36.7809712 24.1036437 8.17413669"></polygon>
                    <polygon id="Fill-3" fill="#00A758" points="8.18213092 0 0 8.17413669 0 36.7809712 0 44.9543525 8.18213092 36.7809712 8.18213092 8.17413669"></polygon>
                    <path d="M85.26,40.3 L85.26,7.1572 L91.0962,7.1572 L99.7014,22.6636 L99.7866,22.6636 L108.4344,7.1572 L114.228,7.1572 L114.228,40.3 L109.1586,40.3 L109.1586,15.1234 L109.0734,15.1234 L99.744,31.9078 L90.4146,15.2086 L90.3294,15.2086 L90.3294,40.3 L85.26,40.3 Z M125.5674,40.8964 C121.6908,40.8964 118.4958,38.2552 118.4958,33.7822 C118.4958,28.1164 123.5226,25.9864 128.6772,25.3474 L130.1256,25.177 C131.574,25.0066 132.2556,24.2824 132.2556,22.9618 C132.2556,21.0874 130.8498,19.8094 128.6772,19.8094 C126.036,19.8094 123.8634,21.7264 122.7558,23.3878 L120.1572,20.1928 C122.0742,17.722 124.971,16.018 128.9328,16.018 C134.0022,16.018 136.9416,18.4462 136.9416,23.3452 L136.9416,40.3 L132.2982,40.3 L132.2982,37.7014 C130.296,39.4054 128.4216,40.8964 125.5674,40.8964 Z M126.462,37.0624 C128.6772,37.0624 130.7646,35.2732 132.1278,33.5266 L132.1278,28.4572 L132.0426,28.4572 L128.8902,28.8832 C125.9934,29.3092 123.1392,30.5872 123.1392,33.5692 C123.1392,35.401 124.2468,37.0624 126.462,37.0624 Z M142.104,40.3 L142.104,16.6144 L146.9178,16.6144 L146.9178,19.0426 C148.7922,17.4664 151.05,16.018 153.819,16.018 C156.7584,16.018 159.8682,17.6368 159.8682,23.3452 L159.8682,40.3 L155.0544,40.3 L155.0544,24.6232 C155.0544,22.408 154.8414,19.9372 152.328,19.9372 C150.198,19.9372 148.1532,21.7264 146.9178,22.834 L146.9178,40.3 L142.104,40.3 Z M171.0798,40.8964 C168.1404,40.8964 164.9454,39.1924 164.9454,33.1858 L164.9454,16.6144 L169.7592,16.6144 L169.7592,31.6522 C169.7592,33.8248 170.0148,36.9772 172.6134,36.9772 C174.573,36.9772 176.6178,35.3158 177.8958,33.91 L177.8958,16.6144 L182.7096,16.6144 L182.7096,40.3 L177.8958,40.3 L177.8958,37.8292 C175.8936,39.448 173.7636,40.8964 171.0798,40.8964 Z M187.9998,40.3 L187.9998,8.0092 L192.8136,5.4532 L192.8136,40.3 L187.9998,40.3 Z M200.532,12.5248 C198.8706,12.5248 197.5074,11.1616 197.5074,9.5002 C197.5074,7.8814 198.8706,6.4756 200.532,6.4756 C202.1508,6.4756 203.5566,7.8814 203.5566,9.5002 C203.5566,11.1616 202.1508,12.5248 200.532,12.5248 Z M198.1038,40.3 L198.1038,16.6144 L202.9176,16.6144 L202.9176,40.3 L198.1038,40.3 Z M208.8894,40.3 L208.8894,20.6188 L205.524,20.6188 L205.524,16.6144 L208.8894,16.6144 L208.8894,13.249 C208.8894,9.2872 211.2324,6.4756 215.8332,6.4756 C217.5372,6.4756 219.156,6.859 220.1358,7.3276 L218.8152,11.0764 C218.1336,10.7782 217.1112,10.5652 216.4296,10.5652 C214.5552,10.5652 213.7032,11.5876 213.7032,13.5898 L213.7032,16.6144 L219.0282,16.6144 L218.2614,20.6188 L213.7032,20.6188 L213.7032,40.3 L208.8894,40.3 Z M228.6636,40.8964 C222.5718,40.8964 218.6952,36.04 218.6952,28.4572 C218.6952,21.13 222.5718,16.018 228.6636,16.018 C235.0536,16.018 238.3338,20.917 237.993,29.4796 L223.5942,29.4796 C223.509,34.2934 225.7668,37.105 229.0896,37.105 C231.5604,37.105 233.6052,35.188 234.6276,33.1006 L237.6522,35.7844 C235.9056,38.596 232.881,40.8964 228.6636,40.8964 Z M223.7646,26.0716 L233.1792,26.0716 C233.2218,22.9192 231.9438,19.7242 228.621,19.7242 C225.2982,19.7242 223.8072,23.1322 223.7646,26.0716 Z" id="Manulife" fill="#000000"></path>
                </g>
            </g>
        </g>
    </g>
</svg>