<svg xmlns="http://www.w3.org/2000/svg" width="124" height="23" viewBox="0 0 124 23">
    <g fill="none" fill-rule="evenodd">
        <path fill="#FFF" d="M53 6v.809h-.487c-1.825 0-2.336.58-2.336 2.627v10.13c0 2.044.511 2.625 2.336 2.625H53V23h-9.007v-.809h.487c1.826 0 2.337-.58 2.337-2.625V8.576h-.049L40.246 23h-.755L32.943 8.83h-.048v10.736c0 2.044.511 2.625 2.336 2.625h.341V23h-6.548v-.809h.341c1.801 0 2.312-.58 2.312-2.625V9.436c0-2.047-.51-2.627-2.312-2.627H29V6h6.329L41 18.352 46.622 6H53zM66 20.874c-.275.435-.773.991-1.272 1.377-.6.484-1.323.749-2.021.749-1.123 0-1.897-.724-1.897-1.763v-.265c-.649.603-1.646 1.255-2.57 1.69-.498.24-.947.338-1.421.338C55.097 23 54 21.792 54 19.933c0-.797.349-1.592.898-2.124.724-.676 1.672-1.16 3.468-1.762l2.245-.725.2-.072v-1.523c0-1.278-.474-1.762-1.772-1.762-1.097 0-1.746.435-1.746 1.208 0 .024 0 .145.025.338v.12c0 .821-.5 1.329-1.297 1.329-.773 0-1.298-.508-1.298-1.256C54.723 12.11 56.62 11 59.29 11c1.547 0 2.819.313 3.617.917.6.483.874 1.063.899 2.053v5.723c0 .82.024.917.074 1.11a.46.46 0 0 0 .175.265c.075.072.175.096.3.096.349 0 .797-.314 1.247-.846l.399.556zm-5.15-4.82c-2.215.78-2.064.702-2.794 1.171a2.65 2.65 0 0 0-.83.86 1.97 1.97 0 0 0-.226.937c0 1.092.73 1.978 1.61 1.978.629 0 1.735-.599 2.39-1.25V16l-.15.053zM70.7 12.733C72.029 11.578 73.41 11 74.764 11c1.507 0 2.81.778 3.244 1.96.256.676.333 1.48.333 3.161v4.27c0 1.43.306 1.805 1.43 1.805H80V23h-6.31v-.804h.127c1.15 0 1.457-.375 1.457-1.806v-4.067c0-1.76-.077-2.185-.384-2.662a1.67 1.67 0 0 0-1.354-.677c-.945 0-1.917.376-2.835 1.104v6.302c0 1.43.306 1.806 1.43 1.806h.409V23h-6.516v-.804h.155c1.123 0 1.43-.375 1.43-1.806v-5.147c0-1.08-.052-1.557-.205-1.932-.179-.377-.51-.578-.944-.578-.129 0-.257 0-.46.05v-.905L69.627 11H70.7v1.733zM91.394 18.85l.023 1.057c.025.83.268 1.18.853 1.18.145 0 .462-.074.73-.15v.856L89.421 23h-.973v-1.76C87.206 22.37 85.818 23 84.552 23c-1.557 0-2.873-1.032-3.188-2.465-.172-.73-.196-1.057-.196-2.868v-4.076c0-1.308-.292-1.786-1.168-1.786V11h4.114v7.094c0 1.61.122 2.062.609 2.492.292.277.706.427 1.169.427.56 0 .973-.125 1.679-.528.462-.252.584-.329.877-.578V13.59c0-1.408-.293-1.786-1.364-1.786h-.511V11h4.82v7.85zM97.606 20.42c0 1.364.3 1.786 1.32 1.786H99V23h-5.875v-.794h.075c1.12 0 1.393-.372 1.393-1.786v-10.3c0-1.29-.025-1.736-.148-2.085-.125-.372-.5-.62-.923-.62H93.3a.44.44 0 0 0-.15.025L93 6.62 96.585 6h1.02v14.42zM99.045 23v-.804h.369c1.011 0 1.287-.375 1.287-1.806v-5.247c0-1.105-.046-1.582-.184-1.933-.16-.402-.46-.603-.85-.603-.184 0-.3.025-.483.1L99 11.878l3.517-.878h.966v9.39c0 1.43.276 1.806 1.287 1.806h.23V23h-5.955zm3.456-13c-.834 0-1.501-.889-1.501-2 0-1.11.667-2 1.5-2 .834 0 1.5.89 1.5 2 0 1.111-.687 2-1.5 2zM106 23v-.794h.492c1.08 0 1.376-.372 1.376-1.786v-7.37H106v-1.416h1.868v-.372c0-3.052 2.31-5.262 5.478-5.262 1.598 0 2.654.72 2.654 1.838 0 .819-.566 1.39-1.45 1.39-.466 0-.884-.273-1.276-.87l-.247-.347c-.295-.472-.565-.645-.983-.645-.564 0-.982.397-1.105 1.018-.099.372-.123.744-.123 1.588v1.662h2.188v1.415h-2.188v7.371c0 1.414.294 1.786 1.401 1.786h.787V23H106z"/>
        <path fill="#FFF" d="M124 18.774c-.24.919-.881 2.005-1.738 2.849A4.527 4.527 0 0 1 119 23C116.07 23 114 20.513 114 16.964c0-3.573 2.094-5.964 5.215-5.964 2.808 0 4.642 1.908 4.642 4.805v.266h-7.261c.166 2.583 1.642 4.37 3.618 4.37 1.31 0 2.524-.773 3.215-2.005l.571.338zM121 15v-.208c0-1.696-.71-2.792-1.783-2.792-1.233 0-2.08 1.148-2.217 3h4zM0 23h23V0H0z"/>
        <path fill="#424559" d="M20 5l-3 3.359V22l3-3.36zM14 5l-3 3.36V22l3-3.36zM9 5L6 8.36V22l3-3.36z"/>
    </g>
</svg>
