<?xml version="1.0" encoding="UTF-8"?>
<svg width="21px" height="21px" viewBox="0 0 21 21" version="1.1" xmlns="http://www.w3.org/2000/svg" xmlns:xlink="http://www.w3.org/1999/xlink">
    <!-- Generator: Sketch 51.1 (57501) - http://www.bohemiancoding.com/sketch -->
    <desc>Created with Sketch.</desc>
    <defs></defs>
    <g id="Apply" stroke="none" stroke-width="1" fill="none" fill-rule="evenodd">
        <g id="Payment" transform="translate(-832.000000, -37.000000)" fill="#F8453C">
            <g id="Header">
                <g id="Function" transform="translate(826.000000, 28.000000)">
                    <g id="Missing" transform="translate(0.000000, 9.000000)">
                        <g id="Group" transform="translate(6.000000, 0.000000)">
                            <path d="M7.6146596,5.46987406 L5.223302,1.36033973 C6.50368753,0.615032349 7.90037008,0.157112809 9.37365212,0 L9.87965601,4.72736228 C9.07508187,4.81346681 8.31356,5.06283447 7.6146596,5.46987406 Z M15.1359461,7.044916 C14.6640486,6.40080939 14.047898,5.84951676 13.3545888,5.45142309 L15.7219042,1.32791075 C17.0050853,2.06427221 18.0987247,3.04273277 18.9720706,4.23645464 L15.1359461,7.044916 Z M0,10.4561091 L0,10.4398946 C0,8.96158045 0.301924971,7.5319098 0.896269869,6.18890279 L5.24398946,8.11507229 C4.91914055,8.8475199 4.75475918,9.62917011 4.75475918,10.4398946 L0,10.4561091 Z M20.0947842,14.7093373 L15.7520967,12.7742219 C16.07415,12.0512793 16.2402087,11.278575 16.2457999,10.4779147 L16.2452408,10.4057882 L20.9994409,10.4057882 L18.7596049,10.4057882 L20.9977635,10.3213611 L21,10.4398946 C21,11.9249181 20.6958385,13.3612982 20.0947842,14.7093373 Z M5.26076307,19.540696 C3.98093666,18.8032163 2.88897468,17.8230784 2.01562874,16.6276791 L5.85566708,13.8231316 C6.32756463,14.4700338 6.9431561,15.0230038 7.63478793,15.4216566 L5.26076307,19.540696 Z M11.6051013,20.8820256 L11.1091616,16.1535451 C11.9131766,16.0691179 12.6758167,15.8214276 13.3747171,15.4160654 L15.758247,19.5295136 C14.4761841,20.2731436 13.0789425,20.7277084 11.6051013,20.8820256 Z" id="Fill-1"></path>
                        </g>
                    </g>
                </g>
            </g>
        </g>
    </g>
</svg>