<svg xmlns="http://www.w3.org/2000/svg" width="18" height="23" viewBox="0 0 18 23">
    <path fill="#424559" fill-rule="evenodd" d="M10 20.055L8.994 17 8 20.055 9.006 21l.994-.945zm.983.067c.043.2.003.41-.108.574L9.491 22.73c-.206.302-.593.36-.864.13a.65.65 0 0 1-.116-.13l-1.384-2.033a.75.75 0 0 1-.11-.574l1.306-6.192-.678-.757a.745.745 0 0 1 .003-.973c.114-.127.27-.2.432-.2h1.747c.34-.001.617.306.618.686a.733.733 0 0 1-.158.463l-.617.76 1.313 6.213zM18 17.202v2.126a.674.674 0 0 1-.676.672.674.674 0 0 1-.677-.672v-2.126a2.16 2.16 0 0 0-1.055-1.848l-3.608-2.15a2.291 2.291 0 0 1-1.122-1.961V9.395a1.87 1.87 0 0 1 .483-1.23l.9-1.007c.22-.247.34-.567.338-.897v-1.79c.003-1.724-1.4-3.124-3.135-3.127h-.897c-1.734 0-3.14 1.397-3.14 3.12v1.801c-.003.33.118.649.338.897l.9 1.007c.31.345.482.79.483 1.253v1.848a2.294 2.294 0 0 1-1.116 1.935l-3.608 2.15a2.16 2.16 0 0 0-1.055 1.847v2.126A.674.674 0 0 1 .676 20 .674.674 0 0 1 0 19.328v-2.126a3.51 3.51 0 0 1 1.714-2.99l3.609-2.15a.946.946 0 0 0 .463-.81V9.406c0-.132-.05-.26-.139-.359l-.9-1.008a2.677 2.677 0 0 1-.676-1.793V4.47C4.07 2.009 6.073.009 8.551 0h.89c2.484 0 4.498 2 4.498 4.468v1.797a2.677 2.677 0 0 1-.677 1.793l-.899 1.008a.536.536 0 0 0-.139.36v1.847a.946.946 0 0 0 .464.81l3.598 2.13A3.51 3.51 0 0 1 18 17.201z"/>
</svg>
