<svg xmlns="http://www.w3.org/2000/svg" width="119" height="119" viewBox="0 0 119 119">
    <g fill="none" fill-rule="evenodd" transform="translate(4 4)">
        <path stroke="#34384B" stroke-width="8" d="M55.379 0C41.206 0 27.033 5.396 16.222 16.195c-21.63 21.598-21.63 56.611 0 78.206 10.81 10.8 24.984 16.199 39.157 16.199 14.173 0 28.346-5.4 39.156-16.199 21.63-21.595 21.63-56.608 0-78.206C83.725 5.395 69.552 0 55.38 0"/>
        <path fill="#424559" d="M55.51 83.816a6.787 6.787 0 0 0-4.812 1.99 6.789 6.789 0 0 0 0 9.611 6.788 6.788 0 0 0 4.812 1.991 6.788 6.788 0 0 0 4.812-1.99 6.789 6.789 0 0 0 0-9.611 6.787 6.787 0 0 0-4.812-1.99"/>
        <rect width="11.327" height="56.633" x="49.837" y="15.857" fill="#34384B" rx="5.663"/>
    </g>
</svg>
